<?xml version="1.0" encoding="utf-8"?><svg viewBox="0 0 216 209.67" xmlns="http://www.w3.org/2000/svg" xmlns:xlink="http://www.w3.org/1999/xlink"><style>:root>svg{display:none}:root>svg:target{display:block}</style><svg viewBox="0 0 40 41" id="arrow-right" xmlns="http://www.w3.org/2000/svg"><path fill-rule="evenodd" clip-rule="evenodd" d="M2.5 20.5a1.25 1.25 0 011.25-1.25h29.483l-7.868-7.865a1.252 1.252 0 011.77-1.77l10 10a1.25 1.25 0 010 1.77l-10 10a1.252 1.252 0 01-1.77-1.77l7.868-7.865H3.75A1.25 1.25 0 012.5 20.5z"/></svg><svg viewBox="0 0 50 45" id="bicyclist" xmlns="http://www.w3.org/2000/svg"><path d="M10.417 41.755a7.158 7.158 0 01-5.156-2.218 7.723 7.723 0 01-2.136-5.354 7.72 7.72 0 012.136-5.355 7.158 7.158 0 015.156-2.217c1.934 0 3.788.797 5.156 2.217a7.722 7.722 0 012.135 5.355 7.723 7.723 0 01-2.135 5.354 7.158 7.158 0 01-5.156 2.218zm0-18.39c-2.763 0-5.413 1.14-7.366 3.169C1.097 28.562 0 31.314 0 34.183c0 2.869 1.097 5.62 3.051 7.649C5.004 43.86 7.654 45 10.417 45c2.762 0 5.412-1.14 7.365-3.168 1.954-2.029 3.051-4.78 3.051-7.65 0-2.868-1.097-5.62-3.05-7.648-1.954-2.029-4.604-3.169-7.366-3.169zm20.416-4.326h8.75v-3.895h-6.666L28.875 8.07c-.604-1.082-1.792-1.796-3.042-1.796-.979 0-1.875.411-2.5 1.082l-7.708 7.983c-.646.67-1.042 1.536-1.042 2.618 0 1.363.688 2.51 1.771 3.18l6.98 4.392v10.817h3.75V22.284l-4.688-3.57 4.833-5.084 3.604 5.408zm8.75 22.716a7.158 7.158 0 01-5.156-2.218 7.723 7.723 0 01-2.135-5.354c0-2.009.768-3.935 2.135-5.355a7.158 7.158 0 015.156-2.217c1.934 0 3.789.797 5.156 2.217a7.722 7.722 0 012.136 5.355 7.722 7.722 0 01-2.136 5.354 7.157 7.157 0 01-5.156 2.218zm0-18.39c-2.762 0-5.412 1.14-7.365 3.169-1.954 2.028-3.051 4.78-3.051 7.649 0 2.869 1.097 5.62 3.05 7.649C34.172 43.86 36.822 45 39.584 45c1.368 0 2.723-.28 3.987-.823a10.398 10.398 0 003.379-2.345 10.855 10.855 0 002.258-3.51 11.18 11.18 0 00.793-4.14c0-1.42-.27-2.827-.793-4.139a10.855 10.855 0 00-2.258-3.51 10.398 10.398 0 00-3.38-2.344 10.083 10.083 0 00-3.986-.824zm-6.25-15.577c2.084 0 3.75-1.73 3.75-3.894 0-2.163-1.666-3.894-3.75-3.894-2.083 0-3.75 1.73-3.75 3.894s1.667 3.894 3.75 3.894z"/></svg><svg viewBox="0 0 52 52" id="dates" xmlns="http://www.w3.org/2000/svg"><path d="M13.722 28.889a3.612 3.612 0 100-7.223 3.612 3.612 0 000 7.223zm15.89-3.611a3.61 3.61 0 11-7.222 0 3.61 3.61 0 017.221 0zm8.666 3.61a3.611 3.611 0 100-7.221 3.611 3.611 0 000 7.222zm-20.945 7.945a3.611 3.611 0 11-7.222 0 3.611 3.611 0 017.222 0zM26 40.444a3.611 3.611 0 100-7.222 3.611 3.611 0 000 7.222zM0 9.028A9.028 9.028 0 019.028 0h33.944A9.028 9.028 0 0152 9.028v33.944A9.027 9.027 0 0142.972 52H9.028A9.028 9.028 0 010 42.972V9.028zM9.028 3.61A5.417 5.417 0 003.61 9.028v2.528h44.78V9.028a5.417 5.417 0 00-5.417-5.417H9.028zM3.61 42.972a5.417 5.417 0 005.417 5.417h33.944a5.417 5.417 0 005.417-5.417V15.167H3.61v27.805z"/></svg><svg viewBox="0 0 23 24" id="facebook" xmlns="http://www.w3.org/2000/svg"><path d="M23 12.07C23 5.719 17.851.57 11.5.57S0 5.719 0 12.07c0 5.74 4.205 10.497 9.703 11.36v-8.036h-2.92V12.07h2.92V9.536c0-2.882 1.717-4.474 4.344-4.474 1.258 0 2.574.225 2.574.225v2.83h-1.45c-1.429 0-1.874.886-1.874 1.796v2.157h3.19l-.51 3.324h-2.68v8.036C18.795 22.567 23 17.81 23 12.07z"/></svg><svg viewBox="0 0 23 24" id="google" xmlns="http://www.w3.org/2000/svg"><path fill-rule="evenodd" clip-rule="evenodd" d="M22.54 12.261c0-.815-.073-1.6-.21-2.352H11.5v4.448h6.19a5.29 5.29 0 01-2.296 3.471v2.886h3.717c2.174-2.002 3.429-4.95 3.429-8.453z"/><path fill-rule="evenodd" clip-rule="evenodd" d="M11.5 23.5c3.105 0 5.708-1.03 7.61-2.786l-3.716-2.886c-1.03.69-2.347 1.098-3.894 1.098-2.995 0-5.53-2.023-6.435-4.741H1.223v2.98A11.496 11.496 0 0011.5 23.5z"/><path fill-rule="evenodd" clip-rule="evenodd" d="M5.065 14.185A6.913 6.913 0 014.705 12c0-.758.13-1.495.36-2.185v-2.98H1.223A11.496 11.496 0 000 12c0 1.856.444 3.612 1.223 5.165l3.842-2.98z"/><path fill-rule="evenodd" clip-rule="evenodd" d="M11.5 5.074c1.688 0 3.204.58 4.396 1.72l3.299-3.299C17.203 1.64 14.6.5 11.5.5A11.496 11.496 0 001.223 6.835l3.842 2.98c.905-2.718 3.44-4.741 6.435-4.741z"/></svg><svg viewBox="0 0 32 32" id="inst" xmlns="http://www.w3.org/2000/svg"><path fill-rule="evenodd" clip-rule="evenodd" d="M9.468.495c1.645-.076 2.17-.093 6.359-.093 4.19 0 4.714.019 6.358.093 1.643.074 2.765.336 3.747.716a7.59 7.59 0 012.731 1.781 7.54 7.54 0 011.778 2.73c.382.982.642 2.104.718 3.744.076 1.648.093 2.173.093 6.361 0 4.19-.018 4.714-.093 6.36-.074 1.64-.336 2.762-.718 3.743a7.567 7.567 0 01-1.778 2.733 7.564 7.564 0 01-2.731 1.778c-.982.382-2.104.643-3.744.718-1.647.076-2.171.093-6.361.093-4.19 0-4.714-.018-6.36-.093-1.64-.074-2.762-.336-3.743-.718a7.567 7.567 0 01-2.733-1.778 7.56 7.56 0 01-1.78-2.731c-.38-.982-.64-2.104-.716-3.744-.076-1.648-.093-2.172-.093-6.36 0-4.19.018-4.715.093-6.359.074-1.643.336-2.765.716-3.747a7.567 7.567 0 011.781-2.731 7.561 7.561 0 012.73-1.78c.982-.38 2.104-.64 3.744-.716h.002zM22.06 3.27c-1.627-.074-2.115-.09-6.233-.09-4.118 0-4.606.016-6.233.09-1.505.07-2.32.32-2.865.532a4.79 4.79 0 00-1.774 1.152A4.784 4.784 0 003.803 6.73c-.212.544-.463 1.36-.532 2.865-.074 1.627-.09 2.115-.09 6.233 0 4.118.016 4.606.09 6.233.069 1.505.32 2.32.532 2.865.247.669.64 1.276 1.152 1.774a4.787 4.787 0 001.775 1.15c.544.212 1.36.463 2.865.532 1.627.074 2.113.09 6.233.09 4.12 0 4.606-.016 6.233-.09 1.505-.069 2.32-.32 2.865-.532a4.79 4.79 0 001.774-1.152 4.789 4.789 0 001.152-1.774c.212-.544.463-1.36.532-2.865.074-1.627.09-2.114.09-6.233 0-4.118-.016-4.606-.09-6.233-.069-1.505-.32-2.32-.532-2.865A4.79 4.79 0 0026.7 4.955a4.786 4.786 0 00-1.774-1.152c-.544-.212-1.36-.463-2.865-.532zm-8.203 17.311a5.145 5.145 0 103.704-9.6 5.146 5.146 0 00-3.704 9.6zm-3.637-10.36a7.928 7.928 0 1111.212 11.212A7.928 7.928 0 0110.22 10.22zm15.293-1.142a1.875 1.875 0 10-2.574-2.727 1.875 1.875 0 002.574 2.727z"/></svg><svg viewBox="0 0 216 32" id="logo" xmlns="http://www.w3.org/2000/svg"><path d="M2.591 8.832c.242-.307.56-.723.816-1.02.763-.82.862-.928 1.557-1.535.207-.16.451-.352.69-.533-1.764 1.412-1.988 2.976-.37 3.942-.002 0-.002 0-.002.003 2.263 1.29 7.224 1.011 11.138-.642 3.791-1.6 5.19-3.888 3.32-5.248-1.643-.292-3.602-.325-5.674-.063l-.215-.336.178-.558c1.219-.103 2.376-.078 3.375.083.242.039.56.105.798.153a16.562 16.562 0 012.034.593c.447.167.64.242.998.41.4.173.79.37 1.166.587 2.982 1.773 1.128 5.01-4.133 7.227-5.246 2.21-11.93 2.558-14.927.805 0-.002-.005-.005-.013-.007h.006c-1.636-.98-1.808-2.403-.742-3.86zm13.65 12.4l-.043-1.992-1.497-1.575c-4.946 1.06-9.808.832-12.511-.674-.01-.01-.032-.02-.041-.03C.619 16.07.24 14.92.355 13.67c-.358 1.829-.387 2.489-.335 4.054.063.98.662 1.884 1.866 2.596l.009.01c2.882 1.695 8.886 2.063 14.345.903zm6.243 2.282c-6.981 2.649-15.718 2.805-19.514.354.41.947.968 1.83 1.655 2.622 3.483 2.25 11.503 2.106 17.908-.325 3.748-1.421 6.114-3.313 6.735-5.085l.174-.534c.414-1.352.492-2.479.558-3.481-.075 2.176-2.785 4.651-7.516 6.449zm-15.41 5.101c.219.198.909.999 4.404 1.884.944.197 3.323.831 7.717-.09l.026-.379-.347-.515c-4.077.912-8.605.607-11.8-.9zM17.16 12.854l3.712 2.661s.794.541.045.921c-.747.377-2.664 1.298-2.664 1.298l-1.894-.669-.95.4 1.676 1.376.013 2.142.985-.414.652-1.809s2.005-.73 2.8-1.005c.8-.269.693.651.693.651l-.394 4.389 1.308-.55 2.154-5.921s1.142-.525 1.945-.987c.802-.46 1.077-1.226 1.077-1.226s-.782-.319-1.683-.062c-.901.254-2.076.706-2.076.706l-6.095-2.449-1.304.548zm-7.853-8.42l2.52 1.898.688-.097-1.371-1.704s-.299-.352.103-.436c.404-.085 1.427-.282 1.427-.282l.769.58.518-.072-.587-.882.31-.979-.501.069-.594.745s-1.04.092-1.45.125c-.413.03-.236-.389-.236-.389l.79-2.01-.692.096-1.824 2.511s-.607.105-1.047.224c-.442.118-.674.44-.674.44s.323.248.78.239c.46-.009 1.071-.076 1.071-.076zM21.762 28.83l-1.63-.806-.376.124.966.817s.206.166-.01.255c-.217.088-.77.303-.77.303l-.455-.193-.271.093.38.382-.038.559.283-.092.211-.454s.574-.162.803-.219c.227-.059.175.194.175.194L20.815 31l.377-.124.738-1.595s.326-.121.56-.232a.716.716 0 00.327-.316s-.208-.108-.464-.054c-.258.051-.59.152-.59.152zm25.182-16.55V31h-5.248V12.28h-5.408l.512-3.936h15.264l-.512 3.936h-4.608zm11.063 4.96c.32-1.13.853-2.027 1.6-2.688.747-.661 1.61-.992 2.592-.992 1.003 0 1.91.203 2.72.608l-1.12 3.872c-.661-.192-1.227-.288-1.696-.288-.832 0-1.59.31-2.272.928-.661.619-.992 1.525-.992 2.72V31h-4.896V18.936l-.352-4.736 3.712-.48.576 3.52h.128zm15.483 2.112c0-.704-.149-1.216-.447-1.536-.3-.341-.875-.512-1.729-.512-.853 0-2.26.31-4.223.928l-1.376-3.008c.725-.405 1.727-.779 3.007-1.12a14.15 14.15 0 013.809-.544c1.258 0 2.303.15 3.135.448.854.299 1.462.747 1.825 1.344.383.576.629 1.152.736 1.728.127.576.191 1.301.191 2.176v6.016c0 .79.075 1.43.224 1.92.171.49.523 1.024 1.056 1.6l-2.783 2.592c-.491-.235-.971-.587-1.44-1.056-.448-.47-.78-.907-.992-1.312h-.129c-1.237 1.579-2.805 2.368-4.704 2.368-3.072 0-4.608-1.59-4.608-4.768 0-1.685.48-2.944 1.44-3.776.982-.832 2.39-1.408 4.225-1.728l2.784-.48v-1.28zm-3.807 6.752c0 1.045.554 1.568 1.663 1.568a2.96 2.96 0 002.176-.896v-3.008c-1.365.192-2.346.459-2.944.8-.597.32-.895.832-.895 1.536zM89.76 13.688l4.48.512L90.017 31h-5.728L79.84 14.168l4.736-.48 2.528 12.96h.192l2.464-12.96zm13.224-.128c2.133 0 3.701.587 4.704 1.76.832.96 1.344 2.56 1.536 4.8.064.896.096 2.016.096 3.36l-2.272.32h-6.592c0 1.259.234 2.208.704 2.848.469.619 1.301.928 2.496.928 1.216 0 2.677-.31 4.384-.928l.992 3.008c-2.027 1.152-4.139 1.728-6.336 1.728-4.971 0-7.457-2.944-7.457-8.832 0-2.773.64-4.96 1.92-6.56 1.302-1.621 3.243-2.432 5.825-2.432zm1.088 4.544c-.214-.49-.694-.736-1.44-.736-.747 0-1.28.277-1.6.832-.32.533-.502 1.344-.544 2.432h3.904c0-1.216-.107-2.059-.32-2.528zm12.483 7.04c0 1.045.064 1.813.192 2.304.15.49.502 1.077 1.056 1.76l-3.52 2.592c-1.024-1.088-1.728-2.037-2.112-2.848-.362-.832-.544-2.07-.544-3.712V7.384l4.928-.544v18.304zm10.338-16.8h8.192c2.923 0 4.939.693 6.048 2.08.96 1.237 1.44 2.816 1.44 4.736 0 1.984-.587 3.723-1.76 5.216-.619.81-1.557 1.461-2.816 1.952-1.237.47-2.731.704-4.48.704h-1.376V31h-5.248V8.344zm5.248 3.584v7.328h1.728c1.088 0 1.867-.288 2.336-.864.491-.576.736-1.483.736-2.72 0-1.259-.203-2.197-.608-2.816-.405-.619-1.227-.928-2.464-.928h-1.728zm20.035 1.632c1.174 0 2.198.181 3.072.544.875.363 1.558.832 2.048 1.408.512.555.918 1.248 1.216 2.08.491 1.365.736 3.04.736 5.024 0 3.05-.853 5.365-2.56 6.944-1.301 1.216-3.093 1.824-5.376 1.824-1.173 0-2.197-.181-3.072-.544-.874-.363-1.568-.821-2.08-1.376-.49-.576-.896-1.28-1.216-2.112-.49-1.323-.736-2.997-.736-5.024 0-1.877.374-3.53 1.12-4.96 1.302-2.539 3.584-3.808 6.848-3.808zm1.856 8.992c0-1.941-.149-3.285-.448-4.032-.298-.768-.938-1.152-1.92-1.152-.96 0-1.578.363-1.856 1.088-.256.725-.384 2.048-.384 3.968s.15 3.264.448 4.032c.299.747.939 1.12 1.92 1.12.982 0 1.6-.352 1.856-1.056.256-.725.384-2.048.384-3.968zm11.787-5.312c.32-1.13.853-2.027 1.6-2.688.746-.661 1.61-.992 2.592-.992 1.002 0 1.909.203 2.72.608l-1.12 3.872c-.662-.192-1.227-.288-1.696-.288-.832 0-1.59.31-2.272.928-.662.619-.992 1.525-.992 2.72V31h-4.896V18.936l-.352-4.736 3.712-.48.576 3.52h.128zm13.819-3.424h4.32l-.576 3.552h-3.744v7.328c0 1.088.149 1.845.448 2.272.299.427.811.64 1.536.64.299 0 .907-.107 1.824-.32l.864 2.848c-.405.32-1.067.608-1.984.864-.896.256-1.717.384-2.464.384-2.112 0-3.499-.533-4.16-1.6-.64-1.088-.96-2.859-.96-5.312v-7.104h-2.464l.448-3.2 2.112-.288.192-3.2 4.608-1.376v4.512zm13.695 5.536c0-.704-.149-1.216-.448-1.536-.298-.341-.874-.512-1.728-.512-.853 0-2.261.31-4.224.928l-1.376-3.008c.726-.405 1.728-.779 3.008-1.12a14.156 14.156 0 013.808-.544c1.259 0 2.304.15 3.136.448.854.299 1.462.747 1.824 1.344.384.576.63 1.152.736 1.728.128.576.192 1.301.192 2.176v6.016c0 .79.075 1.43.224 1.92.171.49.523 1.024 1.056 1.6l-2.784 2.592c-.49-.235-.97-.587-1.44-1.056-.448-.47-.778-.907-.992-1.312h-.128c-1.237 1.579-2.805 2.368-4.704 2.368-3.072 0-4.608-1.59-4.608-4.768 0-1.685.48-2.944 1.44-3.776.982-.832 2.39-1.408 4.224-1.728l2.784-.48v-1.28zm-3.808 6.752c0 1.045.555 1.568 1.664 1.568.854 0 1.579-.299 2.176-.896v-3.008c-1.365.192-2.346.459-2.944.8-.597.32-.896.832-.896 1.536zm16.687-.96c0 1.045.064 1.813.192 2.304.149.49.501 1.077 1.056 1.76l-3.52 2.592c-1.024-1.088-1.728-2.037-2.112-2.848-.363-.832-.544-2.07-.544-3.712V7.384l4.928-.544v18.304z"/></svg><svg viewBox="0 0 29 30" id="logo-mobile" xmlns="http://www.w3.org/2000/svg"><path d="M2.505 7.832c.234-.307.541-.723.788-1.02.738-.82.834-.928 1.506-1.535.2-.16.436-.352.667-.533C3.76 6.156 3.543 7.72 5.108 8.686c-.002 0-.002 0-.002.003 2.188 1.29 6.983 1.011 10.767-.642 3.664-1.6 5.017-3.888 3.208-5.248-1.587-.292-3.48-.325-5.483-.063l-.209-.336.173-.557c1.178-.104 2.296-.08 3.262.082.234.039.542.105.772.153a15.63 15.63 0 011.966.593c.431.167.618.242.964.41.388.173.764.37 1.128.587 2.882 1.773 1.09 5.01-3.996 7.227-5.07 2.21-11.533 2.558-14.429.805-.001-.002-.005-.005-.013-.007h.005c-1.58-.98-1.747-2.403-.716-3.86zm13.194 12.4l-.041-1.992-1.447-1.575c-4.782 1.06-9.481.832-12.094-.674-.01-.01-.031-.02-.04-.03C.597 15.07.232 13.92.344 12.67c-.347 1.829-.375 2.489-.325 4.054.061.98.64 1.884 1.804 2.596l.009.01c2.786 1.695 8.59 2.063 13.867.903zm6.035 2.282c-6.748 2.649-15.194 2.805-18.863.354a10.2 10.2 0 001.6 2.622c3.367 2.25 11.12 2.106 17.31-.325 3.625-1.421 5.911-3.313 6.511-5.085l.169-.534c.4-1.352.475-2.479.539-3.481-.073 2.176-2.693 4.651-7.266 6.449zM6.838 27.615c.212.198.879.999 4.257 1.884.913.197 3.213.831 7.46-.09l.026-.379-.336-.515c-3.941.912-8.319.607-11.407-.9zm9.751-15.761l3.588 2.661s.768.541.044.921c-.722.377-2.576 1.298-2.576 1.298l-1.83-.669-.918.4 1.62 1.376.012 2.142.952-.414.63-1.809s1.938-.73 2.707-1.005c.773-.269.67.651.67.651l-.38 4.389 1.264-.55 2.082-5.921s1.104-.525 1.88-.986c.776-.462 1.041-1.227 1.041-1.227s-.756-.319-1.627-.062c-.871.254-2.007.706-2.007.706l-5.891-2.449-1.26.548zm-7.591-8.42l2.436 1.898.665-.097-1.326-1.704s-.288-.352.1-.436c.39-.085 1.38-.283 1.38-.283l.743.582.5-.073-.567-.882.3-.979-.485.069-.573.745s-1.007.092-1.403.125c-.398.03-.227-.389-.227-.389L11.305 0l-.67.096-1.762 2.511s-.588.105-1.013.224c-.427.118-.652.44-.652.44s.313.248.754.239c.444-.009 1.036-.076 1.036-.076zM21.037 27.83l-1.576-.806-.363.124.934.817s.199.166-.01.255a95.3 95.3 0 01-.744.303l-.44-.193-.263.093.367.382-.036.559.274-.092.204-.454s.554-.162.775-.219c.22-.059.17.194.17.194L20.121 30l.364-.124.714-1.595s.316-.121.542-.232a.706.706 0 00.315-.316s-.2-.108-.448-.054c-.25.051-.571.152-.571.152z"/></svg><svg viewBox="0 0 60 45" id="plane" xmlns="http://www.w3.org/2000/svg"><path d="M53.93 42.955c0 .542-.213 1.062-.592 1.446-.38.383-.894.599-1.43.599H15.49a2.012 2.012 0 01-1.43-.6 2.057 2.057 0 01-.593-1.445c0-.543.213-1.063.593-1.447.38-.383.894-.599 1.43-.599h36.417c.537 0 1.052.216 1.43.6.38.383.593.903.593 1.446zM60 22.5v6.136c0 .543-.213 1.063-.593 1.447a2.013 2.013 0 01-1.43.599h-44.56a9.992 9.992 0 01-6.044-2.012 10.177 10.177 0 01-3.642-5.275L.165 11.403a4.212 4.212 0 01.632-3.63 4.105 4.105 0 011.442-1.205 4.06 4.06 0 011.82-.432h4.35a1.98 1.98 0 011.543.742l4.451 5.395h4.35l-2.276-6.878a4.132 4.132 0 01.552-3.695A4.06 4.06 0 0118.472.448 4.01 4.01 0 0120.32 0h4.274a1.98 1.98 0 011.492.665l10.52 11.608h13.277a10.06 10.06 0 017.153 2.995A10.285 10.285 0 0160 22.5zm-4.046 0a6.196 6.196 0 00-1.785-4.332 6.061 6.061 0 00-4.285-1.804H35.722a1.982 1.982 0 01-1.492-.665L23.71 4.09h-3.39l3.162 9.588a2.093 2.093 0 01-.278 1.84 2.002 2.002 0 01-1.644.845h-8.093a1.981 1.981 0 01-1.542-.742l-4.451-5.395h-3.44L7.6 22.22a6.11 6.11 0 002.188 3.165 6 6 0 003.629 1.207h42.537V22.5z"/></svg><svg viewBox="0 0 15 26" id="slider-left" xmlns="http://www.w3.org/2000/svg"><path d="M14.076 24.933a1.875 1.875 0 000-2.652L4.794 13l9.282-9.281a1.875 1.875 0 00-2.652-2.651L.818 11.674a1.875 1.875 0 000 2.652l10.606 10.607a1.875 1.875 0 002.652 0z" fill-opacity=".5"/></svg><svg viewBox="0 0 15 26" id="slider-right" xmlns="http://www.w3.org/2000/svg"><path d="M.924 1.067a1.875 1.875 0 000 2.652L10.206 13 .924 22.281a1.875 1.875 0 002.652 2.652l10.606-10.607a1.875 1.875 0 000-2.652L3.576 1.068a1.875 1.875 0 00-2.652 0z"/></svg><svg viewBox="0 0 209.673 209.673" id="tube" xmlns="http://www.w3.org/2000/svg"><path d="M173.075 29.203H36.599C16.418 29.203 0 45.626 0 65.812v78.05c0 20.186 16.418 36.608 36.599 36.608h136.477c20.18 0 36.598-16.422 36.598-36.608v-78.05c-.001-20.186-16.419-36.609-36.599-36.609zm21.598 114.658c0 11.915-9.689 21.608-21.598 21.608H36.599c-11.91 0-21.599-9.693-21.599-21.608v-78.05c0-11.915 9.689-21.608 21.599-21.608h136.477c11.909 0 21.598 9.693 21.598 21.608v78.05z"/><path d="M145.095 98.57L89.499 61.92a7.502 7.502 0 00-11.628 6.262v73.309a7.502 7.502 0 007.499 7.5 7.489 7.489 0 004.129-1.239l55.596-36.659a7.5 7.5 0 000-12.523zm-52.224 28.992V82.109l34.471 22.723-34.471 22.73z"/></svg><svg viewBox="0 0 33 27" id="twitter" xmlns="http://www.w3.org/2000/svg"><path d="M32.461 3.923a13.08 13.08 0 01-3.75 1.028 6.549 6.549 0 002.871-3.615 13.041 13.041 0 01-4.148 1.584 6.534 6.534 0 00-11.13 5.96A18.55 18.55 0 012.838 2.054a6.53 6.53 0 00-.884 3.284 6.535 6.535 0 002.906 5.438 6.516 6.516 0 01-2.959-.818v.084a6.534 6.534 0 005.24 6.406 6.58 6.58 0 01-2.95.112 6.535 6.535 0 006.102 4.535 13.108 13.108 0 01-8.113 2.797c-.521 0-1.042-.03-1.56-.091a18.474 18.474 0 0010.013 2.935c12.017 0 18.587-9.953 18.587-18.585 0-.28-.007-.564-.02-.845a13.28 13.28 0 003.257-3.379l.003-.004z"/></svg><svg viewBox="0 0 35 34" id="utube" xmlns="http://www.w3.org/2000/svg"><path d="M25.894 5.609H9.067a5.609 5.609 0 00-5.609 5.609v11.218a5.609 5.609 0 005.61 5.609h16.826a5.609 5.609 0 005.61-5.61V11.219a5.609 5.609 0 00-5.61-5.61z"/><path d="M21.688 16.827l-7.012-4.207v8.414l7.012-4.207z"/></svg><svg viewBox="0 0 33 28" id="youtube" xmlns="http://www.w3.org/2000/svg"><path d="M24.894 2.609H8.067a5.609 5.609 0 00-5.609 5.609v11.218a5.609 5.609 0 005.61 5.609h16.826a5.609 5.609 0 005.61-5.61V8.219a5.609 5.609 0 00-5.61-5.61z"/><path d="M20.688 13.827L13.676 9.62v8.414l7.012-4.207z"/></svg></svg>